# Blender 4.3.1
# www.blender.org
o N_1
v -0.144010 0.231733 0.100000
v 0.081028 0.231733 0.100000
v 0.081028 -0.289876 0.100000
v -0.039688 -0.289876 0.100000
v -0.039688 0.134863 0.100000
v -0.144010 0.134863 0.100000
v -0.144010 0.231733 -0.100000
v 0.081028 0.231733 -0.100000
v 0.081028 -0.289876 -0.100000
v -0.039688 -0.289876 -0.100000
v -0.039688 0.134863 -0.100000
v -0.144010 0.134863 -0.100000
v -0.144010 0.231733 -0.100000
v -0.145555 0.233278 -0.099734
v -0.146949 0.234672 -0.098962
v -0.148055 0.235778 -0.097760
v -0.148765 0.236489 -0.096245
v -0.149010 0.236733 -0.094565
v -0.149010 0.236733 0.094565
v -0.148765 0.236489 0.096245
v -0.148055 0.235778 0.097760
v -0.146949 0.234672 0.098962
v -0.145555 0.233278 0.099734
v -0.144010 0.231733 0.100000
v 0.081028 0.231733 -0.100000
v 0.082573 0.233278 -0.099734
v 0.083967 0.234672 -0.098962
v 0.085073 0.235778 -0.097760
v 0.085783 0.236489 -0.096245
v 0.086028 0.236733 -0.094565
v 0.086028 0.236733 0.094565
v 0.085783 0.236489 0.096245
v 0.085073 0.235778 0.097760
v 0.083967 0.234672 0.098962
v 0.082573 0.233278 0.099734
v 0.081028 0.231733 0.100000
v 0.081028 -0.289876 -0.100000
v 0.082573 -0.291421 -0.099734
v 0.083967 -0.292815 -0.098962
v 0.085073 -0.293921 -0.097760
v 0.085783 -0.294631 -0.096245
v 0.086028 -0.294876 -0.094565
v 0.086028 -0.294876 0.094565
v 0.085783 -0.294631 0.096245
v 0.085073 -0.293921 0.097760
v 0.083967 -0.292815 0.098962
v 0.082573 -0.291421 0.099734
v 0.081028 -0.289876 0.100000
v -0.039688 -0.289876 -0.100000
v -0.041233 -0.291421 -0.099734
v -0.042627 -0.292815 -0.098962
v -0.043733 -0.293921 -0.097760
v -0.044443 -0.294631 -0.096245
v -0.044688 -0.294876 -0.094565
v -0.044688 -0.294876 0.094565
v -0.044443 -0.294631 0.096245
v -0.043733 -0.293921 0.097760
v -0.042627 -0.292815 0.098962
v -0.041233 -0.291421 0.099734
v -0.039688 -0.289876 0.100000
v -0.039688 0.134863 -0.100000
v -0.041233 0.133318 -0.099734
v -0.042627 0.131924 -0.098962
v -0.043733 0.130818 -0.097760
v -0.044443 0.130108 -0.096245
v -0.044688 0.129863 -0.094565
v -0.044688 0.129863 0.094565
v -0.044443 0.130108 0.096245
v -0.043733 0.130818 0.097760
v -0.042627 0.131924 0.098962
v -0.041233 0.133318 0.099734
v -0.039688 0.134863 0.100000
v -0.144010 0.134863 -0.100000
v -0.145555 0.133318 -0.099734
v -0.146949 0.131924 -0.098962
v -0.148055 0.130818 -0.097760
v -0.148765 0.130108 -0.096245
v -0.149010 0.129863 -0.094565
v -0.149010 0.129863 0.094565
v -0.148765 0.130108 0.096245
v -0.148055 0.130818 0.097760
v -0.146949 0.131924 0.098962
v -0.145555 0.133318 0.099734
v -0.144010 0.134863 0.100000
v -0.143360 0.232349 0.094565
v 0.081677 0.232349 0.094565
v 0.081677 -0.289260 0.094565
v -0.039038 -0.289260 0.094565
v -0.039038 0.135479 0.094565
v -0.143360 0.135479 0.094565
v -0.143360 0.232349 -0.094565
v 0.081677 0.232349 -0.094565
v 0.081677 -0.289260 -0.094565
v -0.039038 -0.289260 -0.094565
v -0.039038 0.135479 -0.094565
v -0.143360 0.135479 -0.094565
v -0.143360 0.232349 -0.094565
v -0.147068 0.236057 -0.093927
v -0.150413 0.239403 -0.092074
v -0.153068 0.242058 -0.089188
v -0.154772 0.243762 -0.085552
v -0.155360 0.244349 -0.081522
v -0.155360 0.244349 0.081522
v -0.154772 0.243762 0.085552
v -0.153068 0.242058 0.089189
v -0.150413 0.239403 0.092074
v -0.147068 0.236057 0.093927
v -0.143360 0.232349 0.094565
v 0.081677 0.232349 -0.094565
v 0.085386 0.236057 -0.093927
v 0.088731 0.239403 -0.092074
v 0.091386 0.242058 -0.089188
v 0.093090 0.243762 -0.085552
v 0.093677 0.244349 -0.081522
v 0.093677 0.244349 0.081522
v 0.093090 0.243762 0.085552
v 0.091386 0.242058 0.089189
v 0.088731 0.239403 0.092074
v 0.085386 0.236057 0.093927
v 0.081677 0.232349 0.094565
v 0.081677 -0.289260 -0.094565
v 0.085386 -0.292968 -0.093927
v 0.088731 -0.296314 -0.092074
v 0.091386 -0.298968 -0.089189
v 0.093090 -0.300673 -0.085552
v 0.093677 -0.301260 -0.081522
v 0.093677 -0.301260 0.081522
v 0.093090 -0.300673 0.085552
v 0.091386 -0.298968 0.089188
v 0.088731 -0.296314 0.092074
v 0.085386 -0.292968 0.093927
v 0.081677 -0.289260 0.094565
v -0.039038 -0.289260 -0.094565
v -0.042746 -0.292968 -0.093927
v -0.046091 -0.296314 -0.092074
v -0.048746 -0.298968 -0.089189
v -0.050451 -0.300673 -0.085552
v -0.051038 -0.301260 -0.081522
v -0.051038 -0.301260 0.081522
v -0.050451 -0.300673 0.085552
v -0.048746 -0.298968 0.089188
v -0.046091 -0.296314 0.092074
v -0.042746 -0.292968 0.093927
v -0.039038 -0.289260 0.094565
v -0.039038 0.135479 -0.094565
v -0.042746 0.131771 -0.093927
v -0.046091 0.128426 -0.092074
v -0.048746 0.125771 -0.089188
v -0.050451 0.124066 -0.085552
v -0.051038 0.123479 -0.081522
v -0.051038 0.123479 0.081522
v -0.050451 0.124066 0.085552
v -0.048746 0.125771 0.089189
v -0.046091 0.128426 0.092074
v -0.042746 0.131771 0.093927
v -0.039038 0.135479 0.094565
v -0.143360 0.135479 -0.094565
v -0.147068 0.131771 -0.093927
v -0.150413 0.128426 -0.092074
v -0.153068 0.125771 -0.089188
v -0.154772 0.124066 -0.085552
v -0.155360 0.123479 -0.081522
v -0.155360 0.123479 0.081522
v -0.154772 0.124066 0.085552
v -0.153068 0.125771 0.089189
v -0.150413 0.128426 0.092074
v -0.147068 0.131771 0.093927
v -0.143360 0.135479 0.094565
v -0.143107 0.232587 0.092391
v 0.081930 0.232587 0.092391
v 0.081930 -0.289023 0.092391
v -0.038785 -0.289023 0.092391
v -0.038785 0.135717 0.092391
v -0.143107 0.135717 0.092391
v -0.143107 0.232587 -0.092391
v 0.081930 0.232587 -0.092391
v 0.081930 -0.289023 -0.092391
v -0.038785 -0.289023 -0.092391
v -0.038785 0.135717 -0.092391
v -0.143107 0.135717 -0.092391
v -0.143107 0.232587 -0.092391
v -0.147743 0.237222 -0.091593
v -0.151924 0.241404 -0.089277
v -0.155243 0.244722 -0.085670
v -0.157373 0.246853 -0.081125
v -0.158107 0.247587 -0.076087
v -0.158107 0.247587 0.076087
v -0.157373 0.246853 0.081125
v -0.155243 0.244722 0.085670
v -0.151924 0.241404 0.089277
v -0.147743 0.237222 0.091593
v -0.143107 0.232587 0.092391
v 0.081930 0.232587 -0.092391
v 0.086565 0.237222 -0.091593
v 0.090747 0.241404 -0.089277
v 0.094065 0.244722 -0.085670
v 0.096196 0.246853 -0.081125
v 0.096930 0.247587 -0.076087
v 0.096930 0.247587 0.076087
v 0.096196 0.246853 0.081125
v 0.094065 0.244722 0.085670
v 0.090747 0.241404 0.089277
v 0.086565 0.237222 0.091593
v 0.081930 0.232587 0.092391
v 0.081930 -0.289023 -0.092391
v 0.086565 -0.293658 -0.091593
v 0.090747 -0.297839 -0.089277
v 0.094065 -0.301158 -0.085670
v 0.096196 -0.303288 -0.081125
v 0.096930 -0.304023 -0.076087
v 0.096930 -0.304023 0.076087
v 0.096196 -0.303288 0.081125
v 0.094065 -0.301158 0.085670
v 0.090747 -0.297839 0.089277
v 0.086565 -0.293658 0.091593
v 0.081930 -0.289023 0.092391
v -0.038785 -0.289023 -0.092391
v -0.043421 -0.293658 -0.091593
v -0.047602 -0.297839 -0.089277
v -0.050921 -0.301158 -0.085670
v -0.053051 -0.303288 -0.081125
v -0.053785 -0.304023 -0.076087
v -0.053785 -0.304023 0.076087
v -0.053051 -0.303288 0.081125
v -0.050921 -0.301158 0.085670
v -0.047602 -0.297839 0.089277
v -0.043421 -0.293658 0.091593
v -0.038785 -0.289023 0.092391
v -0.038785 0.135717 -0.092391
v -0.043421 0.131081 -0.091593
v -0.047602 0.126900 -0.089277
v -0.050921 0.123581 -0.085670
v -0.053051 0.121451 -0.081125
v -0.053785 0.120717 -0.076087
v -0.053785 0.120717 0.076087
v -0.053051 0.121451 0.081125
v -0.050921 0.123581 0.085670
v -0.047602 0.126900 0.089277
v -0.043421 0.131081 0.091593
v -0.038785 0.135717 0.092391
v -0.143107 0.135717 -0.092391
v -0.147743 0.131081 -0.091593
v -0.151924 0.126900 -0.089277
v -0.155243 0.123581 -0.085670
v -0.157373 0.121451 -0.081125
v -0.158107 0.120717 -0.076087
v -0.158107 0.120717 0.076087
v -0.157373 0.121451 0.081125
v -0.155243 0.123581 0.085670
v -0.151924 0.126900 0.089277
v -0.147743 0.131081 0.091593
v -0.143107 0.135717 0.092391
vn -0.0000 -0.0000 1.0000
vn -0.0000 -0.0000 -1.0000
vn -0.2137 0.2137 -0.9532
vn 0.2137 0.2137 -0.9532
vn 0.0854 0.0854 -0.9927
vn -0.0855 0.0854 -0.9927
vn -0.3834 0.3834 -0.8402
vn 0.3834 0.3834 -0.8402
vn -0.5418 0.5418 -0.6425
vn 0.5418 0.5418 -0.6425
vn -0.6616 0.6616 -0.3528
vn 0.6616 0.6616 -0.3528
vn -0.7038 0.7038 -0.0966
vn 0.7038 0.7038 -0.0966
vn -0.7038 0.7038 0.0966
vn 0.7038 0.7038 0.0966
vn -0.6616 0.6616 0.3528
vn 0.6616 0.6616 0.3528
vn -0.5418 0.5418 0.6425
vn 0.5418 0.5418 0.6425
vn -0.3834 0.3834 0.8402
vn 0.3834 0.3834 0.8402
vn -0.2137 0.2137 0.9532
vn 0.2137 0.2137 0.9532
vn -0.0855 0.0854 0.9927
vn 0.0854 0.0854 0.9927
vn 0.2137 -0.2137 -0.9532
vn 0.0854 -0.0854 -0.9927
vn 0.3834 -0.3834 -0.8402
vn 0.5418 -0.5418 -0.6425
vn 0.6616 -0.6616 -0.3528
vn 0.7038 -0.7038 -0.0966
vn 0.7038 -0.7038 0.0966
vn 0.6616 -0.6616 0.3528
vn 0.5418 -0.5418 0.6425
vn 0.3834 -0.3834 0.8402
vn 0.2137 -0.2137 0.9532
vn 0.0854 -0.0854 0.9927
vn -0.2137 -0.2137 -0.9532
vn -0.0854 -0.0854 -0.9927
vn -0.3834 -0.3834 -0.8402
vn -0.5418 -0.5418 -0.6425
vn -0.6616 -0.6616 -0.3528
vn -0.7038 -0.7038 -0.0966
vn -0.7038 -0.7038 0.0966
vn -0.6616 -0.6616 0.3528
vn -0.5418 -0.5418 0.6425
vn -0.3834 -0.3834 0.8402
vn -0.2137 -0.2137 0.9532
vn -0.0854 -0.0854 0.9927
vn -0.1305 -0.1305 -0.9828
vn -0.3086 -0.3086 -0.8997
vn -0.4883 -0.4883 -0.7233
vn -0.6419 -0.6419 -0.4193
vn -0.7031 -0.7031 -0.1066
vn -0.7031 -0.7031 0.1066
vn -0.6419 -0.6419 0.4193
vn -0.4883 -0.4883 0.7233
vn -0.3086 -0.3086 0.8997
vn -0.1305 -0.1305 0.9828
vn -0.0855 -0.0854 -0.9927
vn -0.0855 -0.0855 0.9927
vn -0.0854 0.0854 -0.9927
vn -0.0854 0.0854 0.9927
vt 1.000000 0.000000
vt 0.200000 0.000000
vt 0.000000 0.000000
vt 0.800000 0.000000
vt 0.400000 0.000000
vt 0.600000 0.000000
vt 0.000000 0.090909
vt 0.166667 0.090909
vt 0.166667 0.000000
vt 0.000000 0.181818
vt 0.166667 0.181818
vt 0.000000 0.272727
vt 0.166667 0.272727
vt 0.000000 0.363636
vt 0.166667 0.363636
vt 0.000000 0.454545
vt 0.166667 0.454545
vt 0.000000 0.545455
vt 0.166667 0.545455
vt 0.000000 0.636364
vt 0.166667 0.636364
vt 0.000000 0.727273
vt 0.166667 0.727273
vt 0.000000 0.818182
vt 0.166667 0.818182
vt 0.000000 0.909091
vt 0.166667 0.909091
vt 0.000000 1.000000
vt 0.166667 1.000000
vt 0.333333 0.090909
vt 0.333333 0.000000
vt 0.333333 0.181818
vt 0.333333 0.272727
vt 0.333333 0.363636
vt 0.333333 0.454545
vt 0.333333 0.545455
vt 0.333333 0.636364
vt 0.333333 0.727273
vt 0.333333 0.818182
vt 0.333333 0.909091
vt 0.333333 1.000000
vt 0.500000 0.090909
vt 0.500000 0.000000
vt 0.500000 0.181818
vt 0.500000 0.272727
vt 0.500000 0.363636
vt 0.500000 0.454545
vt 0.500000 0.545455
vt 0.500000 0.636364
vt 0.500000 0.727273
vt 0.500000 0.818182
vt 0.500000 0.909091
vt 0.500000 1.000000
vt 0.666667 0.090909
vt 0.666667 0.000000
vt 0.666667 0.181818
vt 0.666667 0.272727
vt 0.666667 0.363636
vt 0.666667 0.454545
vt 0.666667 0.545455
vt 0.666667 0.636364
vt 0.666667 0.727273
vt 0.666667 0.818182
vt 0.666667 0.909091
vt 0.666667 1.000000
vt 0.833333 0.090909
vt 0.833333 0.000000
vt 0.833333 0.181818
vt 0.833333 0.272727
vt 0.833333 0.363636
vt 0.833333 0.454545
vt 0.833333 0.545455
vt 0.833333 0.636364
vt 0.833333 0.727273
vt 0.833333 0.818182
vt 0.833333 0.909091
vt 0.833333 1.000000
vt 1.000000 0.090909
vt 1.000000 0.181818
vt 1.000000 0.272727
vt 1.000000 0.363636
vt 1.000000 0.454545
vt 1.000000 0.545455
vt 1.000000 0.636364
vt 1.000000 0.727273
vt 1.000000 0.818182
vt 1.000000 0.909091
vt 1.000000 1.000000
s 0
usemtl Metal_gray
f 6/1/1 2/2/1 1/3/1
f 6/1/1 5/4/1 2/2/1
f 5/4/1 3/5/1 2/2/1
f 4/6/1 3/5/1 5/4/1
f 12/1/2 7/3/2 8/2/2
f 12/1/2 8/2/2 11/4/2
f 11/4/2 8/2/2 9/5/2
f 10/6/2 11/4/2 9/5/2
s 1
f 14/7/3 26/8/4 25/9/5 13/3/6
f 15/10/7 27/11/8 26/8/4 14/7/3
f 16/12/9 28/13/10 27/11/8 15/10/7
f 17/14/11 29/15/12 28/13/10 16/12/9
f 18/16/13 30/17/14 29/15/12 17/14/11
f 19/18/15 31/19/16 30/17/14 18/16/13
f 20/20/17 32/21/18 31/19/16 19/18/15
f 21/22/19 33/23/20 32/21/18 20/20/17
f 22/24/21 34/25/22 33/23/20 21/22/19
f 23/26/23 35/27/24 34/25/22 22/24/21
f 24/28/25 36/29/26 35/27/24 23/26/23
f 26/8/4 38/30/27 37/31/28 25/9/5
f 27/11/8 39/32/29 38/30/27 26/8/4
f 28/13/10 40/33/30 39/32/29 27/11/8
f 29/15/12 41/34/31 40/33/30 28/13/10
f 30/17/14 42/35/32 41/34/31 29/15/12
f 31/19/16 43/36/33 42/35/32 30/17/14
f 32/21/18 44/37/34 43/36/33 31/19/16
f 33/23/20 45/38/35 44/37/34 32/21/18
f 34/25/22 46/39/36 45/38/35 33/23/20
f 35/27/24 47/40/37 46/39/36 34/25/22
f 36/29/26 48/41/38 47/40/37 35/27/24
f 38/30/27 50/42/39 49/43/40 37/31/28
f 39/32/29 51/44/41 50/42/39 38/30/27
f 40/33/30 52/45/42 51/44/41 39/32/29
f 41/34/31 53/46/43 52/45/42 40/33/30
f 42/35/32 54/47/44 53/46/43 41/34/31
f 43/36/33 55/48/45 54/47/44 42/35/32
f 44/37/34 56/49/46 55/48/45 43/36/33
f 45/38/35 57/50/47 56/49/46 44/37/34
f 46/39/36 58/51/48 57/50/47 45/38/35
f 47/40/37 59/52/49 58/51/48 46/39/36
f 48/41/38 60/53/50 59/52/49 47/40/37
f 50/42/39 62/54/51 61/55/40 49/43/40
f 51/44/41 63/56/52 62/54/51 50/42/39
f 52/45/42 64/57/53 63/56/52 51/44/41
f 53/46/43 65/58/54 64/57/53 52/45/42
f 54/47/44 66/59/55 65/58/54 53/46/43
f 55/48/45 67/60/56 66/59/55 54/47/44
f 56/49/46 68/61/57 67/60/56 55/48/45
f 57/50/47 69/62/58 68/61/57 56/49/46
f 58/51/48 70/63/59 69/62/58 57/50/47
f 59/52/49 71/64/60 70/63/59 58/51/48
f 60/53/50 72/65/50 71/64/60 59/52/49
f 62/54/51 74/66/39 73/67/61 61/55/40
f 63/56/52 75/68/41 74/66/39 62/54/51
f 64/57/53 76/69/42 75/68/41 63/56/52
f 65/58/54 77/70/43 76/69/42 64/57/53
f 66/59/55 78/71/44 77/70/43 65/58/54
f 67/60/56 79/72/45 78/71/44 66/59/55
f 68/61/57 80/73/46 79/72/45 67/60/56
f 69/62/58 81/74/47 80/73/46 68/61/57
f 70/63/59 82/75/48 81/74/47 69/62/58
f 71/64/60 83/76/49 82/75/48 70/63/59
f 72/65/50 84/77/62 83/76/49 71/64/60
f 74/66/39 14/78/3 13/1/6 73/67/61
f 75/68/41 15/79/7 14/78/3 74/66/39
f 76/69/42 16/80/9 15/79/7 75/68/41
f 77/70/43 17/81/11 16/80/9 76/69/42
f 78/71/44 18/82/13 17/81/11 77/70/43
f 79/72/45 19/83/15 18/82/13 78/71/44
f 80/73/46 20/84/17 19/83/15 79/72/45
f 81/74/47 21/85/19 20/84/17 80/73/46
f 82/75/48 22/86/21 21/85/19 81/74/47
f 83/76/49 23/87/23 22/86/21 82/75/48
f 84/77/62 24/88/25 23/87/23 83/76/49
s 0
f 174/1/1 170/2/1 169/3/1
f 174/1/1 173/4/1 170/2/1
f 173/4/1 171/5/1 170/2/1
f 172/6/1 171/5/1 173/4/1
f 180/1/2 175/3/2 176/2/2
f 180/1/2 176/2/2 179/4/2
f 179/4/2 176/2/2 177/5/2
f 178/6/2 179/4/2 177/5/2
s 1
f 182/7/3 194/8/4 193/9/5 181/3/63
f 183/10/7 195/11/8 194/8/4 182/7/3
f 184/12/9 196/13/10 195/11/8 183/10/7
f 185/14/11 197/15/12 196/13/10 184/12/9
f 186/16/13 198/17/14 197/15/12 185/14/11
f 187/18/15 199/19/16 198/17/14 186/16/13
f 188/20/17 200/21/18 199/19/16 187/18/15
f 189/22/19 201/23/20 200/21/18 188/20/17
f 190/24/21 202/25/22 201/23/20 189/22/19
f 191/26/23 203/27/24 202/25/22 190/24/21
f 192/28/64 204/29/26 203/27/24 191/26/23
f 194/8/4 206/30/27 205/31/28 193/9/5
f 195/11/8 207/32/29 206/30/27 194/8/4
f 196/13/10 208/33/30 207/32/29 195/11/8
f 197/15/12 209/34/31 208/33/30 196/13/10
f 198/17/14 210/35/32 209/34/31 197/15/12
f 199/19/16 211/36/33 210/35/32 198/17/14
f 200/21/18 212/37/34 211/36/33 199/19/16
f 201/23/20 213/38/35 212/37/34 200/21/18
f 202/25/22 214/39/36 213/38/35 201/23/20
f 203/27/24 215/40/37 214/39/36 202/25/22
f 204/29/26 216/41/38 215/40/37 203/27/24
f 206/30/27 218/42/39 217/43/40 205/31/28
f 207/32/29 219/44/41 218/42/39 206/30/27
f 208/33/30 220/45/42 219/44/41 207/32/29
f 209/34/31 221/46/43 220/45/42 208/33/30
f 210/35/32 222/47/44 221/46/43 209/34/31
f 211/36/33 223/48/45 222/47/44 210/35/32
f 212/37/34 224/49/46 223/48/45 211/36/33
f 213/38/35 225/50/47 224/49/46 212/37/34
f 214/39/36 226/51/48 225/50/47 213/38/35
f 215/40/37 227/52/49 226/51/48 214/39/36
f 216/41/38 228/53/50 227/52/49 215/40/37
f 218/42/39 230/54/51 229/55/40 217/43/40
f 219/44/41 231/56/52 230/54/51 218/42/39
f 220/45/42 232/57/53 231/56/52 219/44/41
f 221/46/43 233/58/54 232/57/53 220/45/42
f 222/47/44 234/59/55 233/58/54 221/46/43
f 223/48/45 235/60/56 234/59/55 222/47/44
f 224/49/46 236/61/57 235/60/56 223/48/45
f 225/50/47 237/62/58 236/61/57 224/49/46
f 226/51/48 238/63/59 237/62/58 225/50/47
f 227/52/49 239/64/60 238/63/59 226/51/48
f 228/53/50 240/65/50 239/64/60 227/52/49
f 230/54/51 242/66/39 241/67/40 229/55/40
f 231/56/52 243/68/41 242/66/39 230/54/51
f 232/57/53 244/69/42 243/68/41 231/56/52
f 233/58/54 245/70/43 244/69/42 232/57/53
f 234/59/55 246/71/44 245/70/43 233/58/54
f 235/60/56 247/72/45 246/71/44 234/59/55
f 236/61/57 248/73/46 247/72/45 235/60/56
f 237/62/58 249/74/47 248/73/46 236/61/57
f 238/63/59 250/75/48 249/74/47 237/62/58
f 239/64/60 251/76/49 250/75/48 238/63/59
f 240/65/50 252/77/50 251/76/49 239/64/60
f 242/66/39 182/78/3 181/1/63 241/67/40
f 243/68/41 183/79/7 182/78/3 242/66/39
f 244/69/42 184/80/9 183/79/7 243/68/41
f 245/70/43 185/81/11 184/80/9 244/69/42
f 246/71/44 186/82/13 185/81/11 245/70/43
f 247/72/45 187/83/15 186/82/13 246/71/44
f 248/73/46 188/84/17 187/83/15 247/72/45
f 249/74/47 189/85/19 188/84/17 248/73/46
f 250/75/48 190/86/21 189/85/19 249/74/47
f 251/76/49 191/87/23 190/86/21 250/75/48
f 252/77/50 192/88/64 191/87/23 251/76/49
s 0
usemtl Shine_blue_th
f 90/1/1 86/2/1 85/3/1
f 90/1/1 89/4/1 86/2/1
f 89/4/1 87/5/1 86/2/1
f 88/6/1 87/5/1 89/4/1
f 96/1/2 91/3/2 92/2/2
f 96/1/2 92/2/2 95/4/2
f 95/4/2 92/2/2 93/5/2
f 94/6/2 95/4/2 93/5/2
s 1
f 98/7/3 110/8/4 109/9/5 97/3/63
f 99/10/7 111/11/8 110/8/4 98/7/3
f 100/12/9 112/13/10 111/11/8 99/10/7
f 101/14/11 113/15/12 112/13/10 100/12/9
f 102/16/13 114/17/14 113/15/12 101/14/11
f 103/18/15 115/19/16 114/17/14 102/16/13
f 104/20/17 116/21/18 115/19/16 103/18/15
f 105/22/19 117/23/20 116/21/18 104/20/17
f 106/24/21 118/25/22 117/23/20 105/22/19
f 107/26/23 119/27/24 118/25/22 106/24/21
f 108/28/64 120/29/26 119/27/24 107/26/23
f 110/8/4 122/30/27 121/31/28 109/9/5
f 111/11/8 123/32/29 122/30/27 110/8/4
f 112/13/10 124/33/30 123/32/29 111/11/8
f 113/15/12 125/34/31 124/33/30 112/13/10
f 114/17/14 126/35/32 125/34/31 113/15/12
f 115/19/16 127/36/33 126/35/32 114/17/14
f 116/21/18 128/37/34 127/36/33 115/19/16
f 117/23/20 129/38/35 128/37/34 116/21/18
f 118/25/22 130/39/36 129/38/35 117/23/20
f 119/27/24 131/40/37 130/39/36 118/25/22
f 120/29/26 132/41/38 131/40/37 119/27/24
f 122/30/27 134/42/39 133/43/40 121/31/28
f 123/32/29 135/44/41 134/42/39 122/30/27
f 124/33/30 136/45/42 135/44/41 123/32/29
f 125/34/31 137/46/43 136/45/42 124/33/30
f 126/35/32 138/47/44 137/46/43 125/34/31
f 127/36/33 139/48/45 138/47/44 126/35/32
f 128/37/34 140/49/46 139/48/45 127/36/33
f 129/38/35 141/50/47 140/49/46 128/37/34
f 130/39/36 142/51/48 141/50/47 129/38/35
f 131/40/37 143/52/49 142/51/48 130/39/36
f 132/41/38 144/53/50 143/52/49 131/40/37
f 134/42/39 146/54/51 145/55/40 133/43/40
f 135/44/41 147/56/52 146/54/51 134/42/39
f 136/45/42 148/57/53 147/56/52 135/44/41
f 137/46/43 149/58/54 148/57/53 136/45/42
f 138/47/44 150/59/55 149/58/54 137/46/43
f 139/48/45 151/60/56 150/59/55 138/47/44
f 140/49/46 152/61/57 151/60/56 139/48/45
f 141/50/47 153/62/58 152/61/57 140/49/46
f 142/51/48 154/63/59 153/62/58 141/50/47
f 143/52/49 155/64/60 154/63/59 142/51/48
f 144/53/50 156/65/50 155/64/60 143/52/49
f 146/54/51 158/66/39 157/67/40 145/55/40
f 147/56/52 159/68/41 158/66/39 146/54/51
f 148/57/53 160/69/42 159/68/41 147/56/52
f 149/58/54 161/70/43 160/69/42 148/57/53
f 150/59/55 162/71/44 161/70/43 149/58/54
f 151/60/56 163/72/45 162/71/44 150/59/55
f 152/61/57 164/73/46 163/72/45 151/60/56
f 153/62/58 165/74/47 164/73/46 152/61/57
f 154/63/59 166/75/48 165/74/47 153/62/58
f 155/64/60 167/76/49 166/75/48 154/63/59
f 156/65/50 168/77/50 167/76/49 155/64/60
f 158/66/39 98/78/3 97/1/63 157/67/40
f 159/68/41 99/79/7 98/78/3 158/66/39
f 160/69/42 100/80/9 99/79/7 159/68/41
f 161/70/43 101/81/11 100/80/9 160/69/42
f 162/71/44 102/82/13 101/81/11 161/70/43
f 163/72/45 103/83/15 102/82/13 162/71/44
f 164/73/46 104/84/17 103/83/15 163/72/45
f 165/74/47 105/85/19 104/84/17 164/73/46
f 166/75/48 106/86/21 105/85/19 165/74/47
f 167/76/49 107/87/23 106/86/21 166/75/48
f 168/77/50 108/88/64 107/87/23 167/76/49
