# Blender 4.3.1
# www.blender.org
mtllib p1.mtl
o p1
v 2.517978 0.001087 -1.006325
v 2.517978 0.001087 1.006323
v 1.511966 0.001087 -7.649012
v 1.138930 0.001087 -7.275977
v 1.138929 0.001086 7.275975
v 1.511966 0.001086 7.649011
v 2.517978 0.001087 -7.275977
v 2.144941 0.001087 -7.649012
v 2.144942 0.001086 7.649011
v 2.517977 0.001086 7.275975
v 0.825079 0.001087 -1.563211
v 0.398195 0.001087 -0.692475
v 0.268194 0.001087 1.006323
v 1.138929 0.001087 1.433208
v -5.546533 0.001087 -0.692476
v -5.919568 0.001087 -0.319440
v -5.919568 0.001087 0.319436
v -5.546533 0.001087 0.692472
v 2.831828 0.001087 -1.006325
v 2.831828 0.001087 1.006323
v 1.138929 0.001087 -1.433210
v 0.268194 0.001087 -1.006325
v 0.398195 0.001087 0.692472
v 0.825080 0.001087 1.563209
v 2.274945 0.001087 -7.962863
v 2.831829 0.001087 -7.405978
v 2.831828 0.001086 7.405976
v 2.274944 0.001086 7.962863
v 1.381964 0.001086 7.962863
v 0.825079 0.001086 7.405976
v 0.825080 0.001087 -7.405978
v 1.381965 0.001087 -7.962863
v -5.676534 0.001087 1.006323
v -6.233419 0.001087 0.449437
v -6.233419 0.001087 -0.449441
v -5.676534 0.001087 -1.006325
v 2.517978 0.241087 -1.006325
v 2.517978 0.241087 1.006323
v 1.511966 0.241087 -7.649012
v 1.138930 0.241080 -7.275977
v 1.138929 0.241086 7.275975
v 1.511966 0.241086 7.649011
v 2.517978 0.241087 -7.275977
v 2.144941 0.241087 -7.649012
v 2.144942 0.241086 7.649011
v 2.517977 0.241086 7.275975
v 0.825079 0.241087 -1.563211
v 0.398195 0.241087 -0.692475
v 0.268194 0.241087 1.006323
v 1.138929 0.241087 1.433208
v -5.546533 0.241087 -0.692476
v -5.919568 0.241087 -0.319440
v -5.919568 0.241087 0.319436
v -5.546533 0.241087 0.692472
v 2.831828 0.241087 -1.006325
v 2.831828 0.241080 1.006323
v 1.138929 0.241087 -1.433210
v 0.268194 0.241087 -1.006325
v 0.398195 0.241087 0.692472
v 0.825080 0.241087 1.563209
v 2.274945 0.241087 -7.962863
v 2.831829 0.241087 -7.405978
v 2.831828 0.241086 7.405976
v 2.274944 0.241086 7.962863
v 1.381964 0.241086 7.962863
v 0.825079 0.241086 7.405976
v 0.825080 0.241087 -7.405978
v 1.381965 0.241087 -7.962863
v -5.676534 0.241087 1.006323
v -6.233419 0.241087 0.449437
v -6.233419 0.241087 -0.449441
v -5.676534 0.241087 -1.006325
v 2.517978 1.358922 -1.006325
v 2.517978 1.358922 1.006323
v 1.511966 1.358922 -7.649012
v 1.138929 1.358922 -7.275977
v 1.138929 1.358921 7.275975
v 1.511965 1.358921 7.649011
v 2.517978 1.358922 -7.275977
v 2.144941 1.358922 -7.649012
v 2.144942 1.358921 7.649011
v 2.517977 1.358921 7.275976
v 0.825079 1.358922 -1.563211
v 0.398195 1.358922 -0.692475
v 0.268194 1.358922 1.006323
v 1.138929 1.358922 1.433208
v -5.546533 1.358922 -0.692475
v -5.919569 1.358922 -0.319439
v -5.919569 1.358922 0.319437
v -5.546533 1.358922 0.692472
v 2.831828 1.358922 -1.006325
v 2.831828 1.358922 1.006323
v 1.138929 1.358922 -1.433210
v 0.268194 1.358922 -1.006325
v 0.398195 1.358922 0.692473
v 0.825080 1.358922 1.563209
v 2.274945 1.358922 -7.962862
v 2.831829 1.358922 -7.405978
v 2.831827 1.358921 7.405977
v 2.274944 1.358921 7.962863
v 1.381964 1.358921 7.962863
v 0.825079 1.358921 7.405976
v 0.825080 1.358922 -7.405978
v 1.381965 1.358922 -7.962863
v -5.676534 1.358922 1.006323
v -6.233420 1.358922 0.449438
v -6.233420 1.358922 -0.449441
v -5.676534 1.358922 -1.006325
v 2.517978 1.598922 -1.006325
v 2.517978 1.598922 1.006323
v 1.511966 1.598922 -7.649012
v 1.138929 1.598922 -7.275977
v 1.138929 1.598921 7.275975
v 1.511965 1.598921 7.649011
v 2.517978 1.598922 -7.275977
v 2.144941 1.598922 -7.649012
v 2.144942 1.598921 7.649011
v 2.517977 1.598921 7.275976
v 0.825079 1.598922 -1.563211
v 0.398195 1.598922 -0.692475
v 0.268194 1.598922 1.006323
v 1.138929 1.598922 1.433208
v -5.546533 1.598922 -0.692475
v -5.919569 1.598922 -0.319439
v -5.919569 1.598922 0.319437
v -5.546533 1.598922 0.692472
v 2.831828 1.598922 -1.006324
v 2.831828 1.598915 1.006323
v 1.138929 1.598922 -1.433210
v 0.268194 1.598922 -1.006325
v 0.398195 1.598922 0.692473
v 0.825080 1.598922 1.563209
v 2.274945 1.598922 -7.962862
v 2.831829 1.598922 -7.405978
v 2.831827 1.598921 7.405977
v 2.274944 1.598921 7.962863
v 1.381964 1.598921 7.962863
v 0.825079 1.598921 7.405976
v 0.825080 1.598922 -7.405978
v 1.381965 1.598922 -7.962863
v -5.676534 1.598922 1.006323
v -6.233420 1.598922 0.449438
v -6.233420 1.598922 -0.449440
v -5.676534 1.598922 -1.006325
v 2.831828 0.241093 1.006323
v 2.831828 0.241093 -1.006325
v 0.825080 0.241093 -7.405978
v 1.381965 0.241093 -7.962863
v 1.381964 0.241092 7.962861
v 0.825079 0.241092 7.405976
v 2.274943 0.241093 -7.962863
v 2.831829 0.241093 -7.405978
v 2.831827 0.241092 7.405976
v 2.274944 0.241092 7.962861
v 0.825079 0.241093 1.563209
v 0.268194 0.241093 1.006323
v 0.825079 0.241093 0.449437
v 1.381965 0.241093 1.006323
v 0.268194 0.241093 -1.006325
v 0.825079 0.241093 -1.563211
v 1.381965 0.241093 -1.006325
v 0.825079 0.241093 -0.449441
v 0.825079 1.358881 -1.563211
v 0.825079 1.358881 -0.449441
v 1.381965 1.358881 -1.006325
v 0.268194 1.358881 1.006323
v 1.381965 1.358881 1.006323
v 0.825079 1.358881 0.449437
v -5.676534 0.241093 1.006322
v -6.233419 0.241093 0.449437
v -6.233419 0.241093 -0.449441
v -5.676534 0.241093 -1.006325
v 2.831828 1.358881 -1.006325
v 2.831828 1.358881 1.006323
v 0.268194 1.358881 -1.006325
v 0.825079 1.358881 1.563209
v 2.274943 1.358881 -7.962862
v 2.831829 1.358881 -7.405978
v 2.831827 1.358880 7.405977
v 2.274944 1.358880 7.962862
v 1.381964 1.358880 7.962861
v 0.825079 1.358880 7.405976
v 0.825080 1.358881 -7.405978
v 1.381965 1.358881 -7.962863
v -5.676534 1.358881 1.006322
v -6.233419 1.358881 0.449438
v -6.233419 1.358881 -0.449441
v -5.676534 1.358881 -1.006325
vn -0.0000 -1.0000 -0.0000
vn -0.0000 1.0000 -0.0000
vn 1.0000 -0.0000 -0.0000
vn -0.7071 -0.0000 -0.7071
vn -0.7071 -0.0000 0.7071
vn 0.7071 -0.0000 -0.7071
vn 0.7071 -0.0000 0.7071
vn -1.0000 -0.0000 -0.0000
vn -0.0000 -0.0000 -1.0000
vn -0.0000 -0.0000 1.0000
vt 0.790101 0.504697
vt 0.791667 0.500000
vt 0.708333 0.500000
vt 0.709899 0.504697
vt 0.386589 0.530031
vt 0.385010 0.530031
vt 0.366600 0.530031
vt 0.372358 0.530031
vt 0.716954 0.530031
vt 0.718344 0.530031
vt 0.728217 0.530031
vt 0.861306 0.510279
vt 0.866666 0.508334
vt 0.868329 0.500000
vt 0.862469 0.504697
vt 0.637531 0.504697
vt 0.631671 0.500000
vt 0.633334 0.508334
vt 0.638694 0.510279
vt 0.647954 0.519752
vt 0.646697 0.521697
vt 0.660099 0.530031
vt 0.656981 0.525334
vt 0.843019 0.525334
vt 0.839901 0.530031
vt 0.853303 0.521697
vt 0.852046 0.519752
vt 0.728216 0.530031
vt 0.735862 0.530031
vt 0.739951 0.530031
vt 0.760049 0.530031
vt 0.764138 0.530031
vt 0.781656 0.530031
vt 0.771783 0.530031
vt 0.787292 0.525334
vt 0.786725 0.530031
vt 0.713275 0.530031
vt 0.712708 0.525334
vt 0.284434 0.521697
vt 0.264138 0.530031
vt 0.235862 0.530031
vt 0.215566 0.521697
vt 0.208333 0.500000
vt 0.291667 0.500000
vt 0.133334 0.508334
vt 0.146697 0.521697
vt 0.354827 0.521697
vt 0.675204 0.508334
vt 0.375000 0.256671
vt 0.625000 0.256671
vt 0.625000 0.333333
vt 0.375000 0.333333
vt 0.213275 0.530031
vt 0.160099 0.530031
vt 0.131671 0.500000
vt 0.646757 0.530031
vt 0.826559 0.530031
vt 0.633400 0.530031
vt 0.559951 0.530031
vt 0.448323 0.530031
vt 0.353303 0.521697
vt 0.339901 0.530031
vt 0.286725 0.530031
vt 0.368329 0.500000
vt 0.366666 0.508334
vt 0.523080 0.530031
vt 0.551356 0.530031
vt 0.448644 0.530031
vt 0.476920 0.530031
vt 0.686043 0.508334
vt 0.783926 0.521697
vt 0.551677 0.530031
vt 0.614990 0.530031
vt 0.375000 0.416667
vt 0.625000 0.416667
vt 0.625000 0.493329
vt 0.375000 0.493329
vt 0.218344 0.530031
vt 0.281656 0.530031
vt 0.375000 0.250000
vt 0.625000 0.250000
vt 0.655031 0.530031
vt 0.844969 0.530031
vt 0.155031 0.530031
vt 0.440049 0.530031
vt 0.173441 0.530031
vt 0.353243 0.530031
vt 0.784434 0.521697
vt 0.715566 0.521697
s 1
usemtl Material.017
f 1/1/1 19/2/1 20/3/1 2/4/1
f 12/5/1 22/6/1 11/7/1 21/8/1
f 14/9/1 24/10/1 13/10/1 23/11/1
f 8/12/1 25/13/1 26/14/1 7/15/1
f 10/16/1 27/17/1 28/18/1 9/19/1
f 6/20/1 29/21/1 30/22/1 5/23/1
f 4/24/1 31/25/1 32/26/1 3/27/1
f 18/28/1 33/10/1 34/29/1 17/30/1
f 16/31/1 35/32/1 36/33/1 15/34/1
f 21/35/1 11/36/1 31/25/1 4/24/1
f 3/27/1 32/26/1 25/13/1 8/12/1
f 7/15/1 26/14/1 19/2/1 1/1/1
f 9/19/1 28/18/1 29/21/1 6/20/1
f 5/23/1 30/22/1 24/37/1 14/38/1
f 2/4/1 20/3/1 27/17/1 10/16/1
f 23/11/1 13/10/1 33/10/1 18/28/1
f 15/34/1 36/33/1 22/33/1 12/34/1
f 17/30/1 34/29/1 35/32/1 16/31/1
f 37/1/2 38/4/2 56/3/2 55/2/2
f 48/5/2 57/8/2 47/7/2 58/6/2
f 50/9/2 59/11/2 49/10/2 60/10/2
f 44/12/2 43/15/2 62/14/2 61/13/2
f 46/16/2 45/19/2 64/18/2 63/17/2
f 42/20/2 41/23/2 66/22/2 65/21/2
f 40/24/2 39/27/2 68/26/2 67/25/2
f 54/28/2 53/30/2 70/29/2 69/10/2
f 52/31/2 51/34/2 72/33/2 71/32/2
f 57/35/2 40/24/2 67/25/2 47/36/2
f 39/27/2 44/12/2 61/13/2 68/26/2
f 43/15/2 37/1/2 55/2/2 62/14/2
f 45/19/2 42/20/2 65/21/2 64/18/2
f 41/23/2 50/38/2 60/37/2 66/22/2
f 38/4/2 46/16/2 63/17/2 56/3/2
f 59/11/2 54/28/2 69/10/2 49/10/2
f 51/34/2 48/34/2 58/33/2 72/33/2
f 53/30/2 52/31/2 71/32/2 70/29/2
f 20/3/3 19/2/3 55/2/3 56/3/3
f 11/7/4 22/6/4 58/6/4 47/7/4
f 13/10/5 24/10/5 60/10/5 49/10/5
f 26/14/6 25/13/6 61/13/6 62/14/6
f 28/18/7 27/17/7 63/17/7 64/18/7
f 30/22/5 29/21/5 65/21/5 66/22/5
f 32/26/4 31/25/4 67/25/4 68/26/4
f 34/29/5 33/10/5 69/10/5 70/29/5
f 36/33/4 35/32/4 71/32/4 72/33/4
f 31/25/8 11/36/8 47/36/8 67/25/8
f 25/13/9 32/26/9 68/26/9 61/13/9
f 19/2/3 26/14/3 62/14/3 55/2/3
f 29/21/10 28/18/10 64/18/10 65/21/10
f 24/37/8 30/22/8 66/22/8 60/37/8
f 27/17/3 20/3/3 56/3/3 63/17/3
f 33/10/10 13/10/10 49/10/10 69/10/10
f 22/33/9 36/33/9 72/33/9 58/33/9
f 35/32/8 34/29/8 70/29/8 71/32/8
f 1/1/8 2/4/8 38/4/8 37/1/8
f 12/5/7 21/8/7 57/8/7 48/5/7
f 14/9/6 23/11/6 59/11/6 50/9/6
f 8/12/5 7/15/5 43/15/5 44/12/5
f 10/16/4 9/19/4 45/19/4 46/16/4
f 6/20/6 5/23/6 41/23/6 42/20/6
f 4/24/7 3/27/7 39/27/7 40/24/7
f 18/28/6 17/30/6 53/30/6 54/28/6
f 16/31/7 15/34/7 51/34/7 52/31/7
f 21/35/3 4/24/3 40/24/3 57/35/3
f 3/27/10 8/12/10 44/12/10 39/27/10
f 7/15/8 1/1/8 37/1/8 43/15/8
f 9/19/9 6/20/9 42/20/9 45/19/9
f 5/23/3 14/38/3 50/38/3 41/23/3
f 2/4/8 10/16/8 46/16/8 38/4/8
f 23/11/9 18/28/9 54/28/9 59/11/9
f 15/34/10 12/34/10 48/34/10 51/34/10
f 17/30/3 16/31/3 52/31/3 53/30/3
f 73/1/1 91/2/1 92/3/1 74/4/1
f 84/5/1 94/6/1 83/7/1 93/8/1
f 86/9/1 96/10/1 85/10/1 95/11/1
f 80/12/1 97/13/1 98/14/1 79/15/1
f 82/16/1 99/17/1 100/18/1 81/19/1
f 78/20/1 101/21/1 102/22/1 77/23/1
f 76/24/1 103/25/1 104/26/1 75/27/1
f 90/28/1 105/10/1 106/29/1 89/30/1
f 88/31/1 107/32/1 108/33/1 87/34/1
f 93/35/1 83/36/1 103/25/1 76/24/1
f 75/27/1 104/26/1 97/13/1 80/12/1
f 79/15/1 98/14/1 91/2/1 73/1/1
f 81/19/1 100/18/1 101/21/1 78/20/1
f 77/23/1 102/22/1 96/37/1 86/38/1
f 74/4/1 92/3/1 99/17/1 82/16/1
f 95/11/1 85/10/1 105/10/1 90/28/1
f 87/34/1 108/33/1 94/33/1 84/34/1
f 89/30/1 106/29/1 107/32/1 88/31/1
f 109/1/2 110/4/2 128/3/2 127/2/2
f 120/5/2 129/8/2 119/7/2 130/6/2
f 122/9/2 131/11/2 121/10/2 132/10/2
f 116/12/2 115/15/2 134/14/2 133/13/2
f 118/16/2 117/19/2 136/18/2 135/17/2
f 114/20/2 113/23/2 138/22/2 137/21/2
f 112/24/2 111/27/2 140/26/2 139/25/2
f 126/28/2 125/30/2 142/29/2 141/10/2
f 124/31/2 123/34/2 144/33/2 143/32/2
f 129/35/2 112/24/2 139/25/2 119/36/2
f 111/27/2 116/12/2 133/13/2 140/26/2
f 115/15/2 109/1/2 127/2/2 134/14/2
f 117/19/2 114/20/2 137/21/2 136/18/2
f 113/23/2 122/38/2 132/37/2 138/22/2
f 110/4/2 118/16/2 135/17/2 128/3/2
f 131/11/2 126/28/2 141/10/2 121/10/2
f 123/34/2 120/34/2 130/33/2 144/33/2
f 125/30/2 124/31/2 143/32/2 142/29/2
f 92/3/3 91/2/3 127/2/3 128/3/3
f 83/7/4 94/6/4 130/6/4 119/7/4
f 85/10/5 96/10/5 132/10/5 121/10/5
f 98/14/6 97/13/6 133/13/6 134/14/6
f 100/18/7 99/17/7 135/17/7 136/18/7
f 102/22/5 101/21/5 137/21/5 138/22/5
f 104/26/4 103/25/4 139/25/4 140/26/4
f 106/29/5 105/10/5 141/10/5 142/29/5
f 108/33/4 107/32/4 143/32/4 144/33/4
f 103/25/8 83/36/8 119/36/8 139/25/8
f 97/13/9 104/26/9 140/26/9 133/13/9
f 91/2/3 98/14/3 134/14/3 127/2/3
f 101/21/10 100/18/10 136/18/10 137/21/10
f 96/37/8 102/22/8 138/22/8 132/37/8
f 99/17/3 92/3/3 128/3/3 135/17/3
f 105/10/10 85/10/10 121/10/10 141/10/10
f 94/33/9 108/33/9 144/33/9 130/33/9
f 107/32/8 106/29/8 142/29/8 143/32/8
f 73/1/8 74/4/8 110/4/8 109/1/8
f 84/5/7 93/8/7 129/8/7 120/5/7
f 86/9/6 95/11/6 131/11/6 122/9/6
f 80/12/5 79/15/5 115/15/5 116/12/5
f 82/16/4 81/19/4 117/19/4 118/16/4
f 78/20/6 77/23/6 113/23/6 114/20/6
f 76/24/7 75/27/7 111/27/7 112/24/7
f 90/28/6 89/30/6 125/30/6 126/28/6
f 88/31/7 87/34/7 123/34/7 124/31/7
f 93/35/3 76/24/3 112/24/3 129/35/3
f 75/27/10 80/12/10 116/12/10 111/27/10
f 79/15/8 73/1/8 109/1/8 115/15/8
f 81/19/9 78/20/9 114/20/9 117/19/9
f 77/23/3 86/38/3 122/38/3 113/23/3
f 74/4/8 82/16/8 118/16/8 110/4/8
f 95/11/9 90/28/9 126/28/9 131/11/9
f 87/34/10 84/34/10 120/34/10 123/34/10
f 89/30/3 88/31/3 124/31/3 125/30/3
usemtl Material.018
f 158/39/1 157/40/1 162/41/1 161/42/1 146/43/1 145/44/1
f 151/45/9 148/46/9 184/47/9 177/48/9
f 152/49/3 178/50/3 173/51/3 146/52/3
f 161/42/1 160/53/1 147/54/1 148/46/1 151/45/1 152/55/1 146/43/1
f 150/56/8 182/57/8 176/58/8 155/59/8
f 175/6/9 159/60/9 172/60/9 188/6/9
f 149/61/1 150/62/1 155/63/1 158/39/1 145/44/1 153/64/1 154/65/1
f 170/66/8 186/67/8 187/68/8 171/69/8
f 154/65/10 180/70/10 181/71/10 149/61/10
f 156/72/10 166/73/10 185/73/10 169/72/10
f 145/74/3 174/75/3 179/76/3 153/77/3
f 146/52/3 173/51/3 174/75/3 145/74/3
f 159/78/1 162/41/1 157/40/1 156/79/1 169/79/1 170/40/1 171/41/1 172/78/1
f 165/6/2 163/7/2 175/6/2 164/6/2
f 155/59/1 156/72/1 157/72/1 158/72/1
f 159/60/1 160/60/1 161/60/1 162/60/1
f 168/29/2 166/10/2 176/10/2 167/10/2
f 178/50/6 152/49/6 151/80/6 177/81/6
f 180/70/7 154/65/7 153/77/7 179/76/7
f 182/57/5 150/56/5 149/82/5 181/83/5
f 184/47/4 148/46/4 147/84/4 183/84/4
f 166/73/5 156/72/5 155/59/5 176/58/5
f 163/7/4 160/85/4 159/60/4 175/6/4
f 186/67/5 170/66/5 169/72/5 185/73/5
f 188/6/4 172/60/4 171/69/4 187/68/4
f 160/85/8 163/7/8 183/86/8 147/87/8
f 178/14/2 177/13/2 184/26/2 183/25/2 163/36/2 165/88/2 173/2/2
f 180/18/2 179/17/2 174/3/2 167/89/2 176/37/2 182/22/2 181/21/2
f 186/29/2 185/10/2 166/10/2 168/29/2 164/32/2 175/33/2 188/33/2 187/32/2
f 167/89/2 174/3/2 173/2/2 165/88/2 164/32/2 168/29/2
