# Blender 4.3.1
# www.blender.org
mtllib p3-rotated.mtl
o p33
v 1.003377 0.241092 6.010116
v -1.003371 0.241092 6.010116
v -1.003371 0.241092 -6.010116
v 1.003377 0.241092 -6.010116
v -1.003371 1.358880 6.010116
v 1.003377 1.358880 6.010116
v 1.003377 1.358881 -6.010116
v -1.003371 1.358881 -6.010118
v -1.003372 1.358921 6.010116
v 1.003377 1.358921 6.010116
v 1.003377 1.358922 -6.010116
v -1.003372 1.358922 -6.010118
v -1.003372 1.598920 6.010116
v 1.003377 1.598920 6.010116
v 1.003377 1.598921 -6.010116
v -1.003372 1.598921 -6.010118
v 0.666798 0.001086 5.690114
v -0.666792 0.001086 5.690114
v -0.666792 0.001086 -5.630518
v 0.666799 0.001086 -5.630518
v -1.003372 0.001086 6.010116
v 1.003377 0.001086 6.010116
v 1.003377 0.001086 -6.010116
v -1.003372 0.001086 -6.010116
v 0.666798 0.241086 5.690114
v -0.666792 0.241086 5.690114
v -0.666792 0.241086 -5.630518
v 0.666799 0.241086 -5.630518
v -1.003372 0.241086 6.010116
v 1.003377 0.241086 6.010116
v 1.003377 0.241086 -6.010116
v -1.003372 0.241086 -6.010116
vn -1.0000 -0.0000 -0.0000
vn 1.0000 -0.0000 -0.0000
vn -0.0000 -0.0000 1.0000
vn -0.0000 -1.0000 -0.0000
vn -0.0000 -0.0000 -1.0000
vn 0.2391 -0.0000 -0.9710
vn -0.2392 -0.0000 -0.9710
vn -0.0000 1.0000 -0.0000
vn -0.0000 0.9709 -0.2395
vn -0.0000 -0.9866 0.1634
vn -0.0000 -0.9710 0.2392
vn -0.0000 -0.9709 -0.2395
vn -0.0000 -0.9865 -0.1635
vn 0.2392 -0.0000 -0.9710
vn 0.2395 -0.0000 0.9709
vn -0.2395 -0.0000 0.9709
vt 0.375000 0.256132
vt 0.625000 0.256132
vt 0.625000 0.327201
vt 0.375000 0.327201
vt 0.440718 0.530031
vt 0.368088 0.530031
vt 0.171954 0.530031
vt 0.352574 0.530031
vt 0.840310 0.530031
vt 0.868868 0.500000
vt 0.862731 0.505037
vt 0.797220 0.505037
vt 0.789509 0.524994
vt 0.843832 0.524994
vt 0.797799 0.500000
vt 0.786315 0.530031
s 1
usemtl Material.001
f 2/1/1 5/2/1 8/3/1 3/4/1
f 4/5/2 7/6/2 6/7/2 1/8/2
f 10/9/3 9/10/3 29/10/3 30/9/3
f 26/11/4 27/12/4 28/13/4 25/14/4
usemtl Material.002
f 12/15/5 16/15/6 15/16/7 11/16/5
f 15/16/8 16/15/8 13/10/9 14/9/8
f 10/9/2 11/16/2 15/16/2 14/9/2
f 12/15/1 9/10/1 13/10/1 16/15/1
f 20/13/10 23/16/11 22/9/12 17/14/13
f 31/16/8 32/15/8 27/12/8 28/13/8
f 18/11/13 21/10/12 24/15/11 19/12/10
f 28/13/8 25/14/8 30/9/8 31/16/8
f 26/11/8 27/12/8 32/15/8 29/10/8
f 12/15/5 11/16/5 31/16/5 32/15/5
f 22/9/2 23/16/2 31/16/2 30/9/2
f 24/15/1 21/10/1 29/10/1 32/15/1
f 24/15/11 23/16/11 20/13/10 19/12/10
f 32/15/5 31/16/5 23/16/7 24/15/14
f 20/13/1 17/14/1 25/14/1 28/13/1
f 20/13/10 28/13/3 27/12/3 19/12/10
f 18/11/2 19/12/2 27/12/2 26/11/2
f 18/11/13 26/11/5 25/14/5 17/14/13
f 30/9/3 29/10/3 21/10/15 22/9/16
f 29/10/8 30/9/8 25/14/8 26/11/8
f 17/14/13 22/9/12 21/10/12 18/11/13
f 14/9/16 13/10/15 9/10/3 10/9/3
