# Blender 4.3.1
# www.blender.org
mtllib p3.mtl
o p3
v -6.010116 0.241092 1.003377
v -6.010116 0.241092 -1.003371
v 6.010116 0.241092 -1.003371
v 6.010116 0.241092 1.003377
v -6.010116 1.358880 -1.003371
v -6.010116 1.358880 1.003377
v 6.010116 1.358881 1.003377
v 6.010118 1.358881 -1.003371
v -6.010116 1.358921 -1.003372
v -6.010116 1.358921 1.003377
v 6.010116 1.358922 1.003377
v 6.010118 1.358922 -1.003372
v -5.690114 1.598921 0.666798
v -5.690114 1.598921 -0.666792
v 5.630518 1.598921 -0.666792
v 5.630518 1.598921 0.666799
v -6.010116 1.598920 -1.003372
v -6.010116 1.598920 1.003377
v 6.010116 1.598921 1.003377
v 6.010118 1.598921 -1.003372
v -5.690114 0.001086 0.666798
v -5.690114 0.001086 -0.666792
v 5.630518 0.001086 -0.666792
v 5.630518 0.001086 0.666799
v -6.010116 0.001086 -1.003372
v -6.010116 0.001086 1.003377
v 6.010116 0.001086 1.003377
v 6.010116 0.001086 -1.003372
v -5.690114 0.241086 0.666798
v -5.690114 0.241086 -0.666792
v 5.630518 0.241086 -0.666792
v 5.630518 0.241086 0.666799
v -6.010116 0.241086 -1.003372
v -6.010116 0.241086 1.003377
v 6.010116 0.241086 1.003377
v 6.010116 0.241086 -1.003372
vn -0.0000 -0.0000 -1.0000
vn -0.0000 -0.0000 1.0000
vn -1.0000 -0.0000 -0.0000
vn -0.0000 -1.0000 -0.0000
vn 1.0000 -0.0000 -0.0000
vn 0.9710 -0.0000 0.2392
vn 0.9710 -0.0000 -0.2392
vn -0.0000 1.0000 -0.0000
vn 0.2395 0.9709 -0.0000
vn -0.1633 -0.9866 -0.0000
vn -0.2392 -0.9710 -0.0000
vn 0.2395 -0.9709 -0.0000
vn 0.1635 -0.9865 -0.0000
vn -0.9709 -0.0000 0.2395
vn -0.9709 -0.0000 -0.2395
vt 0.375000 0.256132
vt 0.625000 0.256132
vt 0.625000 0.327201
vt 0.375000 0.327201
vt 0.440718 0.530031
vt 0.368088 0.530031
vt 0.171954 0.530031
vt 0.352574 0.530031
vt 0.840310 0.530031
vt 0.868868 0.500000
vt 0.862731 0.505037
vt 0.797220 0.505037
vt 0.789509 0.524994
vt 0.843832 0.524994
vt 0.797799 0.500000
vt 0.786315 0.530031
s 1
usemtl Material.001
f 2/1/1 5/2/1 8/3/1 3/4/1
f 4/5/2 7/6/2 6/7/2 1/8/2
f 10/9/3 9/10/3 33/10/3 34/9/3
f 30/11/4 31/12/4 32/13/4 29/14/4
s 0
usemtl Material.002
f 12/15/5 20/15/6 19/16/7 11/16/5
f 19/16/8 20/15/8 17/10/9 18/9/8
s 1
f 10/9/2 11/16/2 19/16/2 18/9/2
f 12/15/1 9/10/1 17/10/1 20/15/1
f 24/13/10 27/16/11 26/9/12 21/14/13
f 35/16/8 36/15/8 31/12/8 32/13/8
f 22/11/13 25/10/12 28/15/11 23/12/10
f 32/13/8 29/14/8 34/9/8 35/16/8
f 30/11/8 31/12/8 36/15/8 33/10/8
s 0
f 12/15/5 11/16/5 35/16/5 36/15/5
s 1
f 26/9/2 27/16/2 35/16/2 34/9/2
f 28/15/1 25/10/1 33/10/1 36/15/1
f 28/15/11 27/16/11 24/13/10 23/12/10
s 0
f 36/15/5 35/16/5 27/16/7 28/15/6
s 1
f 24/13/1 21/14/1 29/14/1 32/13/1
f 24/13/10 32/13/3 31/12/3 23/12/10
f 22/11/2 23/12/2 31/12/2 30/11/2
f 22/11/13 30/11/5 29/14/5 21/14/13
f 34/9/3 33/10/3 25/10/14 26/9/15
f 33/10/8 34/9/8 29/14/8 30/11/8
f 21/14/13 26/9/12 25/10/12 22/11/13
f 18/9/15 17/10/14 9/10/3 10/9/3
